<svg width="20" height="20" viewBox="0 0 20 20" fill="none" xmlns="http://www.w3.org/2000/svg">
    <rect width="20" height="20" fill="white"/>
    <rect x="-0.4" y="0.4" width="11.2" height="14.2" rx="0.6" transform="matrix(-1 0 0 1 15.2 3)" stroke="black" stroke-width="0.8"/>
    <path fill-rule="evenodd" clip-rule="evenodd" d="M16 17H18C18.5523 17 19 16.5523 19 16V6C19 5.44772 18.5523 5 18 5H16V5.8H18C18.1105 5.8 18.2 5.88954 18.2 6V16C18.2 16.1105 18.1105 16.2 18 16.2H16V17Z" fill="black"/>
    <path fill-rule="evenodd" clip-rule="evenodd" d="M4 17H2C1.44771 17 1 16.5523 1 16V6C1 5.44772 1.44771 5 2 5H4V5.8H2C1.88954 5.8 1.8 5.88954 1.8 6V16C1.8 16.1105 1.88954 16.2 2 16.2H4V17Z" fill="black"/>
    <path d="M11.3438 12.5352C11.3438 12.2956 11.2591 12.0938 11.0898 11.9297C10.9232 11.7656 10.6406 11.6172 10.2422 11.4844C9.6875 11.3151 9.28255 11.0951 9.02734 10.8242C8.77474 10.5508 8.64844 10.2044 8.64844 9.78516C8.64844 9.35807 8.77214 9.00781 9.01953 8.73438C9.26953 8.46094 9.61198 8.29818 10.0469 8.24609V7.39062H10.6289V8.25C11.0664 8.3099 11.4062 8.49349 11.6484 8.80078C11.8932 9.10807 12.0156 9.52865 12.0156 10.0625H11.2969C11.2969 9.69531 11.2096 9.40365 11.0352 9.1875C10.8607 8.97135 10.625 8.86328 10.3281 8.86328C10.0182 8.86328 9.78125 8.94401 9.61719 9.10547C9.45312 9.26432 9.37109 9.48698 9.37109 9.77344C9.37109 10.0391 9.45703 10.2513 9.62891 10.4102C9.80339 10.5664 10.0885 10.7096 10.4844 10.8398C10.8828 10.9674 11.1927 11.1094 11.4141 11.2656C11.638 11.4193 11.8021 11.599 11.9062 11.8047C12.013 12.0104 12.0664 12.2513 12.0664 12.5273C12.0664 12.9674 11.9336 13.3216 11.668 13.5898C11.4049 13.8581 11.0352 14.0169 10.5586 14.0664V14.8125H9.98047V14.0664C9.49609 14.0221 9.11589 13.8503 8.83984 13.5508C8.56641 13.2487 8.42969 12.8398 8.42969 12.3242H9.15234C9.15234 12.6862 9.2474 12.9648 9.4375 13.1602C9.6276 13.3555 9.89714 13.4531 10.2461 13.4531C10.5872 13.4531 10.8555 13.3711 11.0508 13.207C11.2461 13.043 11.3438 12.819 11.3438 12.5352Z" fill="black"/>
    <line x1="4" y1="4.75" x2="16" y2="4.75" stroke="black" stroke-width="0.5"/>
    <line x1="1" y1="6.75" x2="4" y2="6.75" stroke="black" stroke-width="0.5"/>
    <line x1="16" y1="6.75" x2="19" y2="6.75" stroke="black" stroke-width="0.5"/>
</svg>
