<?xml version="1.0" encoding="utf-8"?>
<!-- Generator: Adobe Illustrator 23.1.0, SVG Export Plug-In . SVG Version: 6.00 Build 0)  -->
<svg version="1.0" id="Layer_1" xmlns="http://www.w3.org/2000/svg" xmlns:xlink="http://www.w3.org/1999/xlink" x="0px" y="0px"
     viewBox="0 0 20 20" style="enable-background:new 0 0 20 20;" xml:space="preserve">
<g>
	<path d="M10,18.5c0.2-0.2,0.4-0.5,0.6-0.7c0.4-0.4,0.7-0.9,1.1-1.3c0.1-0.1,0.1-0.1,0.2-0.1c1,0,2,0,3,0c1.4,0,2.7-1.2,2.8-2.6
		c0-0.1,0-0.3,0-0.4c0-2.2,0-4.3,0-6.5c0-0.1,0-0.2,0-0.3c0.1-0.3,0.3-0.6,0.7-0.6c0.3,0,0.6,0.3,0.7,0.6c0,0.4,0,0.8,0,1.2
		c0,1.9,0,3.7,0,5.6c0,1.8-0.8,3.1-2.4,3.9c-0.6,0.3-1.3,0.5-2,0.5c-0.7,0-1.5,0-2.2,0c-0.1,0-0.1,0-0.2,0.1
		c-0.5,0.6-0.9,1.1-1.4,1.7c-0.3,0.3-0.6,0.5-1,0.5c-0.4,0-0.6-0.2-0.9-0.5c-0.5-0.6-0.9-1.1-1.4-1.7c-0.1-0.1-0.1-0.1-0.2-0.1
		c-0.8,0-1.5,0-2.3,0c-2,0-3.8-1.4-4.2-3.4c-0.1-0.4-0.1-0.8-0.1-1.1c0-2.9,0-5.9,0-8.8c0-1.7,0.8-3,2.2-3.8C3.8,0.2,4.4,0,5.2,0
		c2.4,0,4.7,0,7.1,0c0.8,0,1.6,0,2.5,0c2,0,3.6,1.3,4.2,3.1C19,3.4,19,3.6,19.1,3.8c0,0.4-0.3,0.7-0.6,0.7c-0.4,0-0.7-0.3-0.7-0.7
		c-0.1-0.6-0.3-1-0.6-1.5c-0.6-0.7-1.3-1.1-2.3-1.1c-3.2,0-6.4,0-9.6,0c-1.4,0-2.7,1.1-2.9,2.5c0,0.2,0,0.4,0,0.6c0,3,0,6,0,8.9
		c0,1.3,0.6,2.2,1.8,2.8c0.4,0.2,0.8,0.2,1.2,0.2c1,0,1.9,0,2.9,0c0.1,0,0.1,0,0.2,0.1c0.5,0.6,1.1,1.3,1.6,1.9
		C9.9,18.4,10,18.5,10,18.5z"/>
	<path d="M11.3,11.2c0,0.7,0,1.4,0,2.1c0,0.7-0.6,1.3-1.3,1.3c-0.7,0-1.3-0.5-1.4-1.2c0-0.2,0-0.5,0-0.7c0-1.2,0-2.4,0-3.6
		c0-0.7,0.5-1.3,1.2-1.3c0.7-0.1,1.3,0.4,1.5,1c0,0.1,0,0.2,0,0.3C11.3,9.8,11.3,10.5,11.3,11.2z"/>
	<path d="M8.7,5c0-0.7,0.6-1.3,1.3-1.3c0.7,0,1.3,0.6,1.4,1.3c0,0.7-0.6,1.3-1.3,1.3C9.3,6.4,8.7,5.8,8.7,5z"/>
</g>
</svg>
