<?xml version="1.0" encoding="utf-8"?>
<!-- Generator: Adobe Illustrator 23.1.0, SVG Export Plug-In . SVG Version: 6.00 Build 0)  -->
<svg version="1.0" id="Capa_1" xmlns="http://www.w3.org/2000/svg" xmlns:xlink="http://www.w3.org/1999/xlink" x="0px" y="0px"
     viewBox="0 0 20 20" style="enable-background:new 0 0 20 20;" xml:space="preserve">
<g>
	<g>
		<path d="M10,0C6.3,0,3.1,3.2,3.1,6.9c0,3.7,3.2,6.9,6.9,6.9c3.7,0,6.9-3.3,6.9-6.9C16.9,3.2,13.7,0,10,0z M10,13
			c-1.2,0-2.5-0.4-3.5-1.2C6.6,9.9,8.1,8.4,10,8.4c1.9,0,3.4,1.5,3.5,3.3C12.5,12.5,11.2,13,10,13z M8,5.7c0-1.1,0.9-2,2-2
			s2,0.9,2,2s-0.9,2-2,2S8,6.8,8,5.7z M14.2,11.2c-0.3-1.5-1.3-2.7-2.7-3.2c0.7-0.5,1.2-1.3,1.2-2.2C12.7,4.2,11.5,3,10,3
			S7.3,4.2,7.3,5.7c0,0.9,0.5,1.7,1.2,2.2C7.1,8.5,6,9.7,5.8,11.2C4.6,10,3.9,8.4,3.9,6.9c0-3.2,2.8-6.1,6.1-6.1s6.1,2.8,6.1,6.1
			C16.1,8.4,15.4,10,14.2,11.2z"/>
	</g>
</g>
<g>
	<g>
		<path d="M12.6,16.9c0-0.1-0.2-0.2-0.3-0.3l-1.3-0.2l-0.6-1.2C10.3,15.1,10.1,15,10,15c-0.1,0-0.3,0.1-0.4,0.2l-0.6,1.2l-1.3,0.2
			c-0.1,0-0.3,0.1-0.3,0.3c0,0.1,0,0.3,0.1,0.4l1,0.9l-0.2,1.3c0,0.1,0,0.3,0.2,0.4C8.5,20,8.7,20,8.8,20l1.2-0.6l1.2,0.6
			c0.1,0.1,0.3,0.1,0.4,0c0.1-0.1,0.2-0.2,0.2-0.4l-0.2-1.3l1-0.9C12.6,17.2,12.6,17,12.6,16.9z M10.8,17.8
			c-0.1,0.1-0.1,0.2-0.1,0.3l0.1,0.8l-0.7-0.4c-0.1,0-0.1,0-0.2,0s-0.1,0-0.2,0l-0.7,0.4l0.1-0.8c0-0.1,0-0.3-0.1-0.3l-0.5-0.5
			l0.8-0.1c0.1,0,0.2-0.1,0.3-0.2l0.3-0.7l0.3,0.7c0.1,0.1,0.2,0.2,0.3,0.2l0.8,0.1L10.8,17.8z"/>
	</g>
</g>
<g>
	<g>
		<path d="M6.4,16.9c0-0.1-0.2-0.2-0.3-0.3l-1.3-0.2l-0.6-1.2C4,15.1,3.9,15,3.8,15c-0.1,0-0.3,0.1-0.4,0.2l-0.6,1.2l-1.3,0.2
			c-0.1,0-0.3,0.1-0.3,0.3c0,0.1,0,0.3,0.1,0.4l1,0.9L2,19.5c0,0.1,0,0.3,0.2,0.4C2.3,20,2.4,20,2.6,20l1.2-0.6L4.9,20
			c0.1,0.1,0.3,0.1,0.4,0c0.1-0.1,0.2-0.2,0.2-0.4l-0.2-1.3l1-0.9C6.4,17.2,6.4,17,6.4,16.9z M4.6,17.8c-0.1,0.1-0.1,0.2-0.1,0.3
			l0.1,0.8l-0.7-0.4c-0.1,0-0.1,0-0.2,0s-0.1,0-0.2,0l-0.7,0.4L3,18.1c0-0.1,0-0.3-0.1-0.3l-0.5-0.5l0.8-0.1c0.1,0,0.2-0.1,0.3-0.2
			l0.3-0.7l0.3,0.7c0.1,0.1,0.2,0.2,0.3,0.2l0.8,0.1L4.6,17.8z"/>
	</g>
</g>
<g>
	<g>
		<path d="M18.9,16.9c0-0.1-0.2-0.2-0.3-0.3l-1.3-0.2l-0.6-1.2c-0.1-0.1-0.2-0.2-0.4-0.2c-0.1,0-0.3,0.1-0.4,0.2l-0.6,1.2L14,16.6
			c-0.1,0-0.3,0.1-0.3,0.3c0,0.1,0,0.3,0.1,0.4l1,0.9l-0.2,1.3c0,0.1,0,0.3,0.2,0.4c0.1,0.1,0.3,0.1,0.4,0l1.2-0.6l1.2,0.6
			c0.1,0.1,0.3,0.1,0.4,0c0.1-0.1,0.2-0.2,0.2-0.4l-0.2-1.3l1-0.9C18.9,17.2,18.9,17,18.9,16.9z M17.1,17.8C17,17.9,17,18,17,18.1
			l0.1,0.8l-0.7-0.4c-0.1,0-0.1,0-0.2,0c-0.1,0-0.1,0-0.2,0l-0.7,0.4l0.1-0.8c0-0.1,0-0.3-0.1-0.3l-0.5-0.5l0.8-0.1
			c0.1,0,0.2-0.1,0.3-0.2l0.3-0.7l0.3,0.7c0.1,0.1,0.2,0.2,0.3,0.2l0.8,0.1L17.1,17.8z"/>
	</g>
</g>
</svg>
